<?xml version="1.0" encoding="UTF-8"?>
<svg id="Calque_2" data-name="Calque 2" xmlns="http://www.w3.org/2000/svg" xmlns:xlink="http://www.w3.org/1999/xlink" viewBox="0 0 2962.51 516.73">
  <defs>
    <style>
      .cls-1 {
        fill: #d01e17;
        stroke-width: 7px;
      }

      .cls-1, .cls-2 {
        stroke: #1d1d1b;
        stroke-miterlimit: 10;
      }

      .cls-3 {
        fill: none;
        stroke-width: 0px;
      }

      .cls-4 {
        clip-path: url(#clippath-1);
      }

      .cls-2 {
        fill: #e74011;
        stroke-width: 3px;
      }

      .cls-5 {
        clip-path: url(#clippath);
      }
    </style>
    <clipPath id="clippath">
      <polygon class="cls-3" points="2287.07 496.54 1489.8 516.73 1487.11 416.42 2284.38 396.22 2287.07 496.54"/>
    </clipPath>
    <clipPath id="clippath-1">
      <path class="cls-3" d="M1093.35,91.07l-514.49-11.8-.13-79.26c69.85,7.16,112.29,2.43,182.14,9.59,19.9,2.04-11.85,33.13,9.83,35.94,85.86,11.14,234.93-1.77,313.74,6.31,2.97,13.07,5.94,26.15,8.91,39.22Z"/>
    </clipPath>
  </defs>
  <g id="Calque_31" data-name="Calque 31">
    <polygon class="cls-1" points="2959.01 389.76 3.5 441.74 3.51 78.37 2959.01 118.25 2959.01 389.76"/>
    <polygon class="cls-2" points="587.39 97.42 890.99 160.52 669.32 87.71 587.39 87.71 587.39 97.42"/>
    <polygon class="cls-2" points="578.78 373.67 739.19 341.31 578.78 351.02 578.78 373.67"/>
    <polygon class="cls-2" points="784.36 425.36 890.34 391.38 842.4 424.75 784.36 425.36"/>
    <polygon class="cls-2" points="2285.78 205.4 2067.82 230.21 2285.78 243.69 2285.78 205.4"/>
    <polygon class="cls-2" points="2285.78 303.37 2213.79 298.34 2285.78 312 2285.78 303.37"/>
    <g class="cls-5">
      <image width="1287" height="282" transform="translate(1743.75 461.46) rotate(4.61) scale(.53 -.52) skewX(.26)" xlink:href="../OneDrive - EDUGIECCIP/Documents/Dessin/Nouveau dossier/test.png"/>
    </g>
    <g class="cls-4">
      <image width="1500" height="900" transform="translate(1769.63 473.37) rotate(-180) scale(.8 .66)" xlink:href="../OneDrive - EDUGIECCIP/Documents/Dessin/Nouveau dossier/test1.png"/>
    </g>
  </g>
</svg>