<?xml version="1.0" encoding="UTF-8"?>
<svg id="Calque_2" data-name="Calque 2" xmlns="http://www.w3.org/2000/svg" viewBox="0 0 1152.29 333.7">
  <defs>
    <style>
      .cls-1 {
        fill: #fff;
        opacity: .98;
        stroke-width: 7px;
      }

      .cls-1, .cls-2 {
        stroke: #1d1d1b;
        stroke-miterlimit: 10;
      }

      .cls-2 {
        fill: #e74011;
        stroke-width: 8px;
      }

      .cls-3 {
        fill: #1d1d1b;
        stroke-width: 0px;
      }
    </style>
  </defs>
  <g id="Calque_31" data-name="Calque 31">
    <polygon class="cls-2" points="278.4 4.06 297.34 54.64 99.83 41.35 213.09 126.06 15.69 175.67 221.18 232.37 190.43 305.45 289.13 275.55 267.6 329.59 941.06 317.08 923.38 285.52 1043.11 298.81 989.72 242.22 1140.19 255.62 1017.22 150.38 1098.12 113.84 989.72 113.84 1097.61 13.35 1005.79 12.11 941.06 51.32 954.8 11.42 278.4 4.06"/>
    <g>
      <path class="cls-1" d="M518.92,116.94l14.71,29.22,13.75-25.59,25.21,3.63-23.88,51,24.45,38.58-37.05,4.01-10.89-27.31-9.93,25.98-28.65-.19,27.88-47.94-19.29-44.69,23.68-6.68Z"/>
      <path class="cls-1" d="M626.83,91.54l-.57,127.58-35.33,3.25,7.83-100.65-17.57-1.72-.38-22.35,46.03-6.11Z"/>
      <path class="cls-1" d="M716.98,95.36c9.74,4.97,18.34,102.95,6.3,111.92-12.03,8.98-64.75,14.9-77.73,4.97s-13.37-108.87-6.68-116.89c6.68-8.02,68.38-4.97,78.12,0ZM698.26,189.52l-9.74-79.07-21.39,1.72,3.06,79.64,28.08-2.29Z"/>
    </g>
    <g>
      <path class="cls-3" d="M475.05,270.73l2.45-33.65,9.55.72,3.79,15.84,4.13-18.34,9.17.48,1.73,35.43-10.8.29,1.06-15.79-3.74,13.73-3.65-.05-3.89-17.57.19,19.2-9.99-.29Z"/>
      <path class="cls-3" d="M529.43,237.23c2.45,1.25,4.32,28.75,1.3,31.01s-17.76,1.44-21.03-1.06c-3.26-2.5-1.68-25.35,0-27.36,1.68-2.02,17.28-3.84,19.73-2.59ZM522.95,262.24l-.77-19.87-5.38.43-.91,20.02,7.06-.58Z"/>
      <path class="cls-3" d="M545.99,234.68c3.94,0,7.63.29,9.22.96,3.22,1.34,2.69,21.27,1.1,22.61-.43.34-1.34.72-2.54,1.06l4.9,13.78-11.23,1.15-1.49-13.58c-1.06.1-1.97.1-2.64.05l.43,9.12-9.5.43,1.2-34.85c2.54-.43,6.67-.72,10.56-.72ZM543.21,255.09c1.78.24,6-.38,6.58-1.25s.43-9.31-.14-10.03c-.58-.72-4.27-1.39-5.9-1.06l-.53,12.34Z"/>
      <path class="cls-3" d="M579.69,236.03l-.77,9.36h-11.95l-.29,4.03,9.02-.72-.24,6.43h-6.96l-.62,8.93h11.14v6.96l-19.68-.77.86-33.51,19.49-.72Z"/>
      <path class="cls-3" d="M611.08,238.33c1.49,0,2.93.1,4.18.24l1.68,12-9.79,1.44.67-7.87h-5.18l-.91,21.51h6.43l-.58-4.22h10.51l-1.15,10.42c-1.39.29-2.98.43-4.7.43-6.34,0-14.16-1.78-16.71-3.74-3.26-2.5-1.68-25.35,0-27.36,1.34-1.63,9.22-2.83,15.55-2.83Z"/>
      <path class="cls-3" d="M641.65,237.23c2.45,1.25,4.32,28.75,1.3,31.01s-17.76,1.44-21.03-1.06c-3.26-2.5-1.68-25.35,0-27.36,1.68-2.02,17.28-3.84,19.73-2.59ZM635.17,262.24l-.77-19.87-5.38.43-.91,20.02,7.06-.58Z"/>
      <path class="cls-3" d="M666.81,236.03l-.24,8.54h-11.95l-.29,5.23,9.02-.72-.24,6.43h-7.49l.53,15.5-9.7-.77.86-33.51,19.49-.72Z"/>
      <path class="cls-3" d="M688.21,236.03l-.24,8.54h-11.95l-.29,5.23,9.02-.72-.24,6.43h-7.49l.53,15.5-9.7-.77.86-33.51,19.49-.72Z"/>
      <path class="cls-3" d="M709.43,236.03l-.77,9.36h-11.95l-.29,4.03,9.02-.72-.24,6.43h-6.96l-.62,8.93h11.14v6.96l-19.68-.77.86-33.51,19.49-.72Z"/>
      <path class="cls-3" d="M731.17,236.03l-.77,9.36h-11.95l-.29,4.03,9.02-.72-.24,6.43h-6.96l-.62,8.93h11.14v6.96l-19.68-.77.86-33.51,19.49-.72Z"/>
      <path class="cls-3" d="M752.92,236.03l-.77,9.36h-11.95l-.29,4.03,9.02-.72-.24,6.43h-6.96l-.62,8.93h11.14v6.96l-19.68-.77.86-33.51,19.49-.72Z"/>
      <path class="cls-3" d="M774.66,236.03l-.77,9.36h-11.95l-.29,4.03,9.02-.72-.24,6.43h-6.96l-.62,8.93h11.14v6.96l-19.68-.77.86-33.51,19.49-.72Z"/>
    </g>
  </g>
</svg>