<?xml version="1.0" encoding="UTF-8"?>
<svg id="Calque_2" data-name="Calque 2" xmlns="http://www.w3.org/2000/svg" viewBox="0 0 1148.82 332.68">
  <defs>
    <style>
      .cls-1 {
        fill: #fe0;
      }

      .cls-1, .cls-2 {
        stroke-width: 7px;
      }

      .cls-1, .cls-2, .cls-3 {
        stroke: #1d1d1b;
        stroke-miterlimit: 10;
      }

      .cls-2 {
        fill: #fff;
        opacity: .98;
      }

      .cls-3 {
        fill: none;
        stroke-width: 4px;
      }

      .cls-4 {
        fill: #1d1d1b;
        stroke-width: 0px;
      }
    </style>
  </defs>
  <g id="Calque_29" data-name="Calque 29">
    <polygon class="cls-1" points="276.43 3.56 295.37 54.13 97.87 40.84 211.12 125.55 13.73 175.16 219.21 231.86 188.47 304.94 287.17 275.05 265.63 329.09 939.1 316.57 921.42 285.01 1041.15 298.3 987.75 241.71 1138.23 255.11 1015.26 149.87 1096.16 113.33 987.75 113.33 1095.65 12.84 1003.83 11.61 939.1 50.81 952.84 10.92 276.43 3.56"/>
    <g>
      <path class="cls-2" d="M533.76,81.1l22.92,46.03,22.54-42.02,36.1,4.97-37.43,68.95,33.23,62.65-47.94,2.29-15.66-38.96-14.13,37.05-32.85-.95,35.91-64.17-30.75-68.38,28.08-7.45Z"/>
      <path class="cls-2" d="M660.78,119.68l-1.91,20.82,47.37,5.16c12.22,11.46.19,59.02-12.22,63.98-12.03,4.97-49.28,11.27-63.6,2.48s-6.11-114.21,9.93-121.85c16.04-7.64,48.51-1.53,69.33,2.67l-3.44,28.46-45.46-1.72ZM679.5,179.85l1.34-15.85-23.88-2.29-3.06,20.05c9.55.96,19.29.76,25.59-1.91Z"/>
    </g>
    <g>
      <path class="cls-4" d="M415.65,275.89c-1.44-.77-1.58-6.62-1.01-9.84l6.24-.67-.62,4.9h5.42l-1.34-20.02,8.54-1.01c.62,10.18.38,23.86-.96,25.87-1.34,2.02-14.83,1.54-16.27.77ZM431.54,239.41l.34,7.78h-7.1l.34-7.49,6.43-.29Z"/>
      <path class="cls-4" d="M446.8,248.48c2.74,0,5.28.29,6.14.86,2.16,1.44,2.83,8.98,1.34,10.46-1.15,1.15-6.91,1.92-11.52,2.02l-.24,3.98h5.62l-.48-2.26h7.06l-1.01,7.73c-1.58.34-3.41.48-5.23.48-4.75,0-9.75-1.01-11.76-2.59-2.88-2.21-1.1-17.23.38-19.06.86-1.01,5.57-1.63,9.7-1.63ZM448.34,256.93l-.29-4.08-4.75-.1-.24,4.03,5.28.14Z"/>
      <path class="cls-4" d="M477.96,253.04h-.29c-1.1.14-2.06,1.97-1.44,2.64l8.64,4.18c2.3,2.16-.19,9.17-2.54,10.13-2.3.91-8.64,1.68-12.91,1.63v-7.83c1.34.53,3.46.86,5.52.86s3.94-.34,5.14-1.15l-8.98-4.08c-4.03-4.03-1.34-11.09,1.82-11.91,1.25-.34,2.78-.53,4.46-.53,2.59,0,5.42.43,7.92,1.25l-1.01,6.14c-3.22-.67-5.23-1.34-6.34-1.34Z"/>
      <path class="cls-4" d="M493.7,271.67c-2.54,0-4.56-.34-4.99-1.15-1.34-2.5-1.15-15.55,0-20.4l8.3-.05c-.29,5.23-.14,14.21.24,14.88.14.29.86.43,1.58.43,1.01,0,2.16-.29,2.21-1.01.1-1.25-.53-9.89-1.39-14.26l9.46-.77c.05,6.1.29,18.24-1.63,19.97-1.1,1.01-8.59,2.35-13.78,2.35Z"/>
      <path class="cls-4" d="M519.62,252.13l.58,17.81-9.12.82,1.15-18.24,7.39-.38ZM519.19,242.29l.14,7.2-6.91.58.34-7.49,6.43-.29Z"/>
      <path class="cls-4" d="M531.04,253.04h-.29c-1.1.14-2.06,1.97-1.44,2.64l8.64,4.18c2.3,2.16-.19,9.17-2.54,10.13-2.3.91-8.64,1.68-12.91,1.63v-7.83c1.34.53,3.46.86,5.52.86s3.94-.34,5.14-1.15l-8.98-4.08c-4.03-4.03-1.34-11.09,1.82-11.91,1.25-.34,2.78-.53,4.46-.53,2.59,0,5.42.43,7.92,1.25l-1.01,6.14c-3.22-.67-5.23-1.34-6.34-1.34Z"/>
      <path class="cls-4" d="M561.76,253.04h-.29c-1.1.14-2.06,1.97-1.44,2.64l8.64,4.18c2.3,2.16-.19,9.17-2.54,10.13-2.3.91-8.64,1.68-12.91,1.63v-7.83c1.34.53,3.46.86,5.52.86s3.94-.34,5.14-1.15l-8.98-4.08c-4.03-4.03-1.34-11.09,1.82-11.91,1.25-.34,2.78-.53,4.46-.53,2.59,0,5.42.43,7.92,1.25l-1.01,6.14c-3.22-.67-5.23-1.34-6.34-1.34Z"/>
      <path class="cls-4" d="M577.51,271.67c-2.54,0-4.56-.34-4.99-1.15-1.34-2.5-1.15-15.55,0-20.4l8.3-.05c-.29,5.23-.14,14.21.24,14.88.14.29.86.43,1.58.43,1.01,0,2.16-.29,2.21-1.01.1-1.25-.53-9.89-1.39-14.26l9.46-.77c.05,6.1.29,18.24-1.63,19.97-1.1,1.01-8.59,2.35-13.78,2.35Z"/>
      <path class="cls-4" d="M596.08,246.18l20.4,1.39c1.1,3.89,1.1,15.07-.53,16.47-1.63,1.39-7.87,2.54-12.96,2.02l.77,12.67-8.88.38,1.2-32.93ZM608.52,257.12c1.1-.58,2.11-5.47.72-6.14-1.39-.67-4.9-1.01-8.06-.82l-.34,8.16c3.31.24,6.58-.62,7.68-1.2Z"/>
      <path class="cls-4" d="M630.88,248.48c2.74,0,5.28.29,6.14.86,2.16,1.44,2.83,8.98,1.34,10.46-1.15,1.15-6.91,1.92-11.52,2.02l-.24,3.98h5.62l-.48-2.26h7.06l-1.01,7.73c-1.58.34-3.41.48-5.23.48-4.75,0-9.75-1.01-11.76-2.59-2.88-2.21-1.1-17.23.38-19.06.86-1.01,5.57-1.63,9.7-1.63ZM632.42,256.93l-.29-4.08-4.75-.1-.24,4.03,5.28.14Z"/>
      <path class="cls-4" d="M642.02,248.43l4.75-1.54,2.26,3.17c4.61,0,10.8.24,11.43,1.87.43,1.1.48,3.98-.1,6.91l-7.3.67c-.82-2.16-1.3-2.98-1.49-3.31-.05-.1-.38-.19-.82-.19-.77,0-1.73.24-1.73.72,0,.77-.29,8.11.14,13.2l-9.46.77,2.83-18.1-.53-4.18Z"/>
      <path class="cls-4" d="M687.19,238.64l-.05,8.88,5.76.53-.29,4.99-5.47.53-.1,17.14-7.25.82-.58-15.84-4.42-.1-.1-6.72,4.13-.67-.43-9.89,8.79.34Z"/>
      <path class="cls-4" d="M707.15,246.99c3.36,0,6.34.53,7.15,1.82,2.54,4.08,1.06,17.52-1.01,20.55-.67.96-4.08,1.44-7.63,1.44s-7.54-.53-8.59-1.58c-2.79-2.88-3.31-15.12-1.58-19.2.77-1.82,6.67-3.02,11.67-3.02ZM700.77,262.31c.53.53,2.35.77,4.13.77s3.36-.24,3.7-.72c.58-.86,1.58-6.29.53-7.87-.43-.58-1.97-.86-3.65-.86-2.45,0-5.18.58-5.42,1.49-.34,1.54-.34,6.19.72,7.2Z"/>
      <path class="cls-4" d="M718.63,248.43l4.75-1.54,2.26,3.17c4.61,0,10.8.24,11.43,1.87.43,1.1.48,3.98-.1,6.91l-7.3.67c-.82-2.16-1.3-2.98-1.49-3.31-.05-.1-.38-.19-.82-.19-.77,0-1.73.24-1.73.72,0,.77-.29,8.11.14,13.2l-9.46.77,2.83-18.1-.53-4.18Z"/>
      <path class="cls-4" d="M739.51,248.43l4.75-1.54,2.26,3.17c4.61,0,10.8.24,11.43,1.87.43,1.1.48,3.98-.1,6.91l-7.3.67c-.82-2.16-1.3-2.98-1.49-3.31-.05-.1-.38-.19-.82-.19-.77,0-1.73.24-1.73.72,0,.77-.29,8.11.14,13.2l-9.46.77,2.83-18.1-.53-4.18Z"/>
      <path class="cls-4" d="M770.99,248.48c2.74,0,5.28.29,6.14.86,2.16,1.44,2.83,8.98,1.34,10.46-1.15,1.15-6.91,1.92-11.52,2.02l-.24,3.98h5.62l-.48-2.26h7.06l-1.01,7.73c-1.58.34-3.41.48-5.23.48-4.75,0-9.75-1.01-11.76-2.59-2.88-2.21-1.1-17.23.38-19.06.86-1.01,5.57-1.63,9.7-1.63ZM772.53,256.93l-.29-4.08-4.75-.1-.24,4.03,5.28.14Z"/>
      <path class="cls-4" d="M798.79,243.44c1.44.77,1.58,6.62,1.01,9.84h-6.24l.62-4.9h-5.42l-.24,9.89,8.16-.62-.19,5.81h-5.76l.96,8.5-10.13,1.01c-.62-10.18-.38-26.74.96-28.75,1.34-2.02,14.83-1.54,16.27-.77Z"/>
      <path class="cls-4" d="M809.01,252.13l.58,17.81-9.12.82,1.15-18.24,7.39-.38ZM808.58,242.29l.14,7.2-6.91.58.34-7.49,6.43-.29Z"/>
      <path class="cls-4" d="M823.17,248.48c2.74,0,5.28.29,6.14.86,2.16,1.44,2.83,8.98,1.34,10.46-1.15,1.15-6.91,1.92-11.52,2.02l-.24,3.98h5.62l-.48-2.26h7.06l-1.01,7.73c-1.58.34-3.41.48-5.23.48-4.75,0-9.75-1.01-11.76-2.59-2.88-2.21-1.1-17.23.38-19.06.86-1.01,5.57-1.63,9.7-1.63ZM824.71,256.93l-.29-4.08-4.75-.1-.24,4.03,5.28.14Z"/>
    </g>
    <path class="cls-3" d="M771.5,237.22s-.15,6.57-7.27,5.41"/>
    <path class="cls-3" d="M825.49,235.57s-.15,6.57-7.27,5.41"/>
  </g>
</svg>