<?xml version="1.0" encoding="UTF-8"?>
<svg id="Calque_2" data-name="Calque 2" xmlns="http://www.w3.org/2000/svg" viewBox="0 0 385.69 478.05">
  <defs>
    <style>
      .cls-1, .cls-2, .cls-3 {
        fill: #f2f2f2;
      }

      .cls-1, .cls-4, .cls-5 {
        stroke-width: 0px;
      }

      .cls-6, .cls-2, .cls-7 {
        stroke: #f2f2f2;
      }

      .cls-6, .cls-5 {
        fill: #131427;
      }

      .cls-2 {
        stroke-width: .5px;
      }

      .cls-4 {
        fill: rgba(19, 20, 39, .93);
      }

      .cls-3 {
        stroke: #131427;
        stroke-miterlimit: 10;
        stroke-width: 2px;
      }

      .cls-7 {
        fill: #f29007;
        stroke-width: 3px;
      }
    </style>
  </defs>
  <g id="Calque_33" data-name="Calque 33">
    <g>
      <polygon class="cls-5" points="383.48 473.14 46.29 473.14 3.17 6.86 340.36 6.86 383.48 473.14"/>
      <path class="cls-5" d="M385.69,475.16c-66.24.79-145.68,2.42-211.49,2.62-41.29-.26-86.93,1.51-127.91-1.64,0,0-2.67-.2-2.67-.2-7.32-58.95-13.42-118.02-19.27-177.12C15.07,202.02,5.82,100.88,0,4.01,63.46,1.17,129.3.36,192.84.03c50.01-.16,100.29.09,150.19,4.04,0,0,.31,2.52.31,2.52,18.82,155.3,30.84,312.71,42.35,468.57h0ZM381.26,471.12c-13.04-116.25-25.36-231.94-35.34-348.24-3.21-38.45-6.22-76.95-8.54-115.74,0,0,2.99,2.72,2.99,2.72-42.13,3.19-84.25,3.87-126.44,3.87-69.58-.11-141.24-.9-210.74-3.87,0,0,2.99-3.28,2.99-3.28,4.85,38.74,9.1,77.54,13.13,116.35,5.55,53.49,11.93,120.96,16.61,174.81,5.01,58.33,9.78,116.66,13.38,175.11,0,0-2.99-2.72-2.99-2.72,27.89-2.11,55.52-1.98,83.32-1.83,76.77.31,174.57,1.51,251.64,2.81h0Z"/>
    </g>
    <circle class="cls-5" cx="92.83" cy="312.83" r="31.29"/>
    <circle class="cls-7" cx="97.61" cy="308.59" r="30.49"/>
    <path class="cls-5" d="M96.28,292.18c3.53-.24,7.03.75,9.9,2.83,2.87,2.08,4.91,5.09,5.78,8.51.22,1.17.36,2.36.42,3.55v15.3s-5.75,0-5.75,0c-1.84,0-3.61-.63-5.05-1.76-1.44-1.14-2.45-2.73-2.87-4.52,0-.05-.04-.09-.08-.13-.04-.03-.09-.05-.14-.05-.05,0-.1.01-.14.05-.04.03-.06.08-.08.13-.29,1.29-.91,2.49-1.77,3.48-.87,1-1.96,1.77-3.19,2.25-1,.38-2.07.57-3.14.54-2.08-.06-4.07-.91-5.55-2.39-1.48-1.48-2.34-3.46-2.39-5.54-.04-1.07.15-2.14.54-3.14v-.05c.51-1.24,1.38-2.3,2.49-3.05,1.11-.74,2.42-1.14,3.76-1.12h8.26c.19,0,.38-.08.52-.22.14-.14.22-.33.22-.52,0-.19-.08-.38-.22-.52-.14-.14-.33-.22-.52-.22h-14.97c.38-3.52,2-6.79,4.55-9.24,2.55-2.45,5.88-3.93,9.42-4.17Z"/>
    <circle class="cls-5" cx="83.42" cy="202.87" r="31.23"/>
    <circle class="cls-7" cx="88.19" cy="198.64" r="30.44"/>
    <ellipse class="cls-4" cx="88.98" cy="212.93" rx="10.06" ry="2.12"/>
    <rect class="cls-1" x="86.75" y="193.55" width="3.36" height="19.38"/>
    <circle class="cls-6" cx="88.72" cy="190.43" r="8.47"/>
    <path class="cls-2" d="M92.63,184.62c.69.51,1.32,1.24,1.72,1.94.2.35.35.69.42.98.07.29.07.52,0,.68-.06.07-.1.09-.13.1-.03,0-.07,0-.14-.05-.07-.05-.15-.13-.25-.24-.09-.11-.2-.25-.31-.4-.45-.62-1.07-1.52-1.98-2.18-.91-.66-1.94-.96-2.64-1.19-.18-.06-.33-.11-.46-.16-.13-.05-.23-.1-.29-.15-.06-.05-.08-.08-.08-.11,0-.02,0-.07.05-.14.09-.05.27-.11.52-.14.27-.03.61-.02.99.03.77.11,1.7.41,2.57,1.04Z"/>
    <g>
      <path class="cls-1" d="M114.71,112.14s111.17-33.5,138.94-14.89"/>
      <path class="cls-5" d="M114.71,112.14c32.49-14.48,97.04-31.44,131.11-19.45,2.84,1.1,5.59,2.57,7.83,4.56-16.33-7.25-50.96-.16-69.16,2.57-23.29,3.95-46.32,8.79-69.78,12.31h0Z"/>
    </g>
    <g>
      <path class="cls-3" d="M89.77,43.36c1.8,0,3.54.12,5.05.29l2.03,14.5-11.83,1.74.81-9.51h-6.26l-1.1,25.98h7.77l-.7-5.1h12.7l-1.39,12.59c-1.68.35-3.6.52-5.68.52-7.66,0-17.11-2.15-20.18-4.52-3.94-3.02-2.03-30.62,0-33.06,1.62-1.97,11.14-3.42,18.79-3.42Z"/>
      <path class="cls-3" d="M115,54.44c4.06,0,7.66.64,8.64,2.2,3.07,4.93,1.28,21.17-1.22,24.82-.81,1.16-4.93,1.74-9.22,1.74s-9.11-.64-10.38-1.91c-3.36-3.48-4-18.27-1.91-23.2.93-2.2,8.06-3.65,14.09-3.65ZM107.29,72.94c.64.64,2.84.93,4.99.93s4.06-.29,4.47-.87c.7-1.04,1.91-7.6.64-9.51-.52-.7-2.38-1.04-4.41-1.04-2.96,0-6.26.7-6.55,1.8-.41,1.86-.41,7.48.87,8.7Z"/>
      <path class="cls-3" d="M128.46,56.18l5.74-1.86,2.73,3.83c5.57,0,12.82,1.74,14.44,4.76,1.62,3.02.35,13.4-1.04,19.26l-10.03.06c.35-6.32.17-15.83-.29-16.65-.17-.35-1.04-.52-1.91-.52-1.22,0-2.61.35-2.67,1.22-.12,1.51.64,10.61,1.68,15.89l-11.43.93,3.42-21.87-.64-5.05Z"/>
      <path class="cls-3" d="M168.71,44.34l-.06,10.73,6.96.64-.35,6.03-6.61.64-.12,20.71-8.76.99-.7-19.14-5.34-.12-.12-8.12,4.99-.81-.52-11.95,10.61.41Z"/>
      <path class="cls-3" d="M177.76,56.18l5.74-1.86,2.73,3.83c5.57,0,13.05.29,13.8,2.26.52,1.33.58,4.81-.12,8.35l-8.82.81c-.99-2.61-1.57-3.6-1.8-4-.06-.12-.46-.23-.99-.23-.93,0-2.09.29-2.09.87,0,.93-.35,9.8.17,15.95l-11.43.93,3.42-21.87-.64-5.05Z"/>
      <path class="cls-3" d="M218.07,54.44c4.06,0,7.66.64,8.64,2.2,3.07,4.93,1.28,21.17-1.22,24.82-.81,1.16-4.93,1.74-9.22,1.74s-9.11-.64-10.38-1.91c-3.36-3.48-4-18.27-1.91-23.2.93-2.2,8.06-3.65,14.09-3.65ZM210.35,72.94c.64.64,2.84.93,4.99.93s4.06-.29,4.47-.87c.7-1.04,1.91-7.6.64-9.51-.52-.7-2.38-1.04-4.41-1.04-2.96,0-6.26.7-6.55,1.8-.41,1.86-.41,7.48.87,8.7Z"/>
      <path class="cls-3" d="M240.63,42.84l-.17,38.74-8.76.99-1.68-40.14,10.61.41Z"/>
      <path class="cls-3" d="M257.04,56.23c3.31,0,6.38.35,7.42,1.04,2.61,1.74,3.42,10.85,1.62,12.64-1.39,1.39-8.35,2.32-13.92,2.44l-.29,4.81h6.79l-.58-2.73h8.53l-1.22,9.34c-1.91.41-4.12.58-6.32.58-5.74,0-11.77-1.22-14.21-3.13-3.48-2.67-1.33-20.82.46-23.03,1.04-1.22,6.73-1.97,11.72-1.97ZM258.9,66.44l-.35-4.93-5.74-.12-.29,4.87,6.38.17Z"/>
      <path class="cls-3" d="M279.31,61.74h-.35c-1.33.17-2.49,2.38-1.74,3.19l10.44,5.05c2.78,2.61-.23,11.08-3.07,12.24-2.78,1.1-10.44,2.03-15.6,1.97v-9.45c1.62.64,4.18,1.04,6.67,1.04s4.76-.41,6.21-1.39l-10.85-4.93c-4.87-4.87-1.62-13.4,2.2-14.38,1.51-.41,3.36-.64,5.39-.64,3.13,0,6.55.52,9.57,1.51l-1.22,7.42c-3.89-.81-6.32-1.62-7.66-1.62Z"/>
    </g>
    <g>
      <path class="cls-1" d="M143.23,192.05h-.26c-.99.13-1.85,1.76-1.29,2.37l7.74,3.74c2.06,1.94-.17,8.21-2.28,9.07-2.06.82-7.74,1.51-11.57,1.46v-7.01c1.2.47,3.1.77,4.94.77s3.53-.3,4.6-1.03l-8.04-3.65c-3.61-3.61-1.2-9.93,1.63-10.66,1.12-.3,2.49-.47,4-.47,2.32,0,4.86.39,7.09,1.12l-.9,5.5c-2.88-.6-4.69-1.2-5.68-1.2Z"/>
      <path class="cls-1" d="M161.81,187.96c2.45,0,4.73.26,5.5.77,1.94,1.29,2.54,8.04,1.2,9.37-1.03,1.03-6.19,1.72-10.32,1.81l-.22,3.57h5.03l-.43-2.02h6.32l-.9,6.92c-1.42.3-3.05.43-4.69.43-4.26,0-8.73-.9-10.53-2.32-2.58-1.98-.99-15.44.34-17.07.77-.9,4.99-1.46,8.69-1.46ZM163.19,195.53l-.26-3.65-4.26-.09-.21,3.61,4.73.13Z"/>
      <path class="cls-1" d="M201.63,207.91c-3.53.22-8.38.47-12.25.47-3.22,0-5.76-.17-6.36-.73-1.38-1.25-1.85-15.18-.39-16.43,1.2-1.03,5.29-1.94,9.25-1.94.77,0,1.59.04,2.37.13l-.69-11.35h7.4l.69,29.84ZM187.01,196.95c-.99.52-1.25,5.12,0,5.72,1.25.6,4,.69,6.84.52l-.52-7.31c-2.97-.22-5.33.56-6.32,1.07Z"/>
      <path class="cls-1" d="M213.8,187.96c2.45,0,4.73.26,5.5.77,1.94,1.29,2.54,8.04,1.2,9.37-1.03,1.03-6.19,1.72-10.32,1.81l-.22,3.57h5.03l-.43-2.02h6.32l-.9,6.92c-1.42.3-3.05.43-4.69.43-4.26,0-8.73-.9-10.53-2.32-2.58-1.98-.99-15.44.34-17.07.77-.9,4.99-1.46,8.69-1.46ZM215.17,195.53l-.26-3.65-4.26-.09-.21,3.61,4.73.13Z"/>
      <path class="cls-1" d="M223.08,185.9l18.28,1.25c.99,3.48.99,13.5-.47,14.75-1.46,1.25-7.05,2.28-11.61,1.81l.69,11.35-7.95.34,1.07-29.5ZM234.22,195.7c.99-.52,1.89-4.9.64-5.5-1.25-.6-4.39-.9-7.22-.73l-.3,7.31c2.97.21,5.89-.56,6.88-1.07Z"/>
      <path class="cls-1" d="M251.68,178.03l-.13,28.72-6.49.73-1.25-29.76,7.87.3Z"/>
      <path class="cls-1" d="M253.91,187.75c5.46-1.29,15.01-1.38,16.38.04s2.49,12.94,3.48,19.39c-6.62.34-18.19,1.33-19.26.73-1.07-.6-1.46-7.74-.39-8.77,1.08-1.03,7.57-1.51,11.65-2.24v-5.12l-4.99.26v3.96l-7.4-.26.52-8ZM262.39,204.69l5.76-.99-.17-3.53-6.02,1.33.43,3.18Z"/>
      <path class="cls-1" d="M291.54,187.4l1.33,9.42-6.92.34-.26-5.38h-4.08l-.69,11.7h5.03l-.43-3.31h8.26l-.9,8.21c-5.03,1.08-14.28-.65-16.81-2.62-2.58-1.98-1.33-14.71,0-16.34,1.29-1.55,10.49-2.62,15.48-2.02Z"/>
      <path class="cls-1" d="M305.95,187.96c2.45,0,4.73.26,5.5.77,1.94,1.29,2.54,8.04,1.2,9.37-1.03,1.03-6.19,1.72-10.32,1.81l-.22,3.57h5.03l-.43-2.02h6.32l-.9,6.92c-1.42.3-3.05.43-4.69.43-4.26,0-8.73-.9-10.53-2.32-2.58-1.98-.99-15.44.34-17.07.77-.9,4.99-1.46,8.69-1.46ZM307.32,195.53l-.26-3.65-4.26-.09-.21,3.61,4.73.13Z"/>
      <path class="cls-1" d="M315.92,187.92l4.26-1.38,2.02,2.84c4.13,0,9.67.22,10.23,1.68.39.99.43,3.57-.09,6.19l-6.54.6c-.73-1.94-1.16-2.67-1.33-2.97-.04-.09-.34-.17-.73-.17-.69,0-1.55.21-1.55.65,0,.69-.26,7.27.13,11.82l-8.47.69,2.54-16.21-.47-3.74Z"/>
    </g>
    <g>
      <path class="cls-1" d="M154.78,300.4h-.26c-.99.13-1.85,1.76-1.29,2.37l7.74,3.74c2.06,1.94-.17,8.21-2.28,9.07-2.06.82-7.74,1.51-11.57,1.46v-7.01c1.2.47,3.1.77,4.94.77s3.53-.3,4.6-1.03l-8.04-3.65c-3.61-3.61-1.2-9.93,1.63-10.66,1.12-.3,2.49-.47,4-.47,2.32,0,4.86.39,7.09,1.12l-.9,5.5c-2.88-.6-4.69-1.2-5.68-1.2Z"/>
      <path class="cls-1" d="M163.42,296.1c5.46-1.29,15.01-1.38,16.38.04s2.49,12.94,3.48,19.39c-6.62.34-18.19,1.33-19.26.73-1.07-.6-1.46-7.74-.39-8.77,1.08-1.03,7.57-1.51,11.65-2.24v-5.12l-4.99.26v3.96l-7.4-.26.52-8ZM171.89,313.05l5.76-.99-.17-3.53-6.02,1.33.43,3.18Z"/>
      <path class="cls-1" d="M190.34,317.09c-2.28,0-4.08-.3-4.47-1.03-1.2-2.24-1.03-13.93,0-18.27l7.44-.04c-.26,4.69-.13,12.73.21,13.33.13.26.77.39,1.42.39.9,0,1.93-.26,1.98-.9.09-1.12-.47-8.86-1.25-12.77l8.47-.69c.04,5.46.26,16.34-1.46,17.89-.99.9-7.7,2.11-12.34,2.11Z"/>
      <path class="cls-1" d="M217.08,287.5l-.04,7.96,5.16.47-.26,4.47-4.9.47-.09,15.35-6.49.73-.52-14.19-3.96-.09-.09-6.02,3.7-.6-.39-8.86,7.87.3Z"/>
      <path class="cls-1" d="M232.95,296.32c2.45,0,4.73.26,5.5.77,1.94,1.29,2.54,8.04,1.2,9.37-1.03,1.03-6.19,1.72-10.32,1.81l-.22,3.57h5.03l-.43-2.02h6.32l-.9,6.92c-1.42.3-3.05.43-4.69.43-4.26,0-8.73-.9-10.53-2.32-2.58-1.98-.99-15.44.34-17.07.77-.9,4.99-1.46,8.69-1.46ZM234.33,303.89l-.26-3.65-4.26-.09-.21,3.61,4.73.13Z"/>
      <path class="cls-1" d="M242.93,296.28l4.26-1.38,2.02,2.84c4.13,0,9.67.22,10.23,1.68.39.99.43,3.57-.09,6.19l-6.54.6c-.73-1.94-1.16-2.67-1.33-2.97-.04-.09-.34-.17-.73-.17-.69,0-1.55.21-1.55.65,0,.69-.26,7.27.13,11.82l-8.47.69,2.54-16.21-.47-3.74Z"/>
    </g>
    <path class="cls-1" d="M218.07,178.07c-1.1,4.89-6.42,9.2-11.52,7.87,4.66-1.64,7.86-4.52,11.52-7.87h0Z"/>
    <path class="cls-1" d="M216.28,44.38c-.43,4.39-4.82,9.13-9.49,7.87,4.09-1.72,6.34-4.77,9.49-7.87h0Z"/>
    <path class="cls-1" d="M216.28,44.38c3.16,3.1,5.42,6.15,9.52,7.87-4.68,1.26-9.07-3.47-9.52-7.87h0Z"/>
  </g>
</svg>