<?xml version="1.0" encoding="UTF-8"?>
<svg id="Calque_2" data-name="Calque 2" xmlns="http://www.w3.org/2000/svg" xmlns:xlink="http://www.w3.org/1999/xlink" viewBox="0 0 2962.51 518.43">
  <defs>
    <style>
      .cls-1 {
        fill: #a9c7ea;
        stroke: #1d1d1b;
        stroke-width: 3px;
      }

      .cls-1, .cls-2 {
        stroke-miterlimit: 10;
      }

      .cls-3 {
        fill: none;
        stroke-width: 0px;
      }

      .cls-4 {
        clip-path: url(#clippath-1);
      }

      .cls-5 {
        clip-path: url(#clippath);
      }

      .cls-2 {
        fill: #66c4f0;
        stroke: #000;
        stroke-width: 7px;
      }
    </style>
    <clipPath id="clippath">
      <polygon class="cls-3" points="2287.07 498.24 1489.8 518.43 1487.11 418.12 2284.38 397.93 2287.07 498.24"/>
    </clipPath>
    <clipPath id="clippath-1">
      <polygon class="cls-3" points="1093.35 98.77 578.87 86.68 578.87 0 759.9 3.35 757 49.38 1089.01 58.73 1093.35 98.77"/>
    </clipPath>
  </defs>
  <g id="Calque_27" data-name="Calque 27">
    <polygon class="cls-2" points="2959.01 397.46 3.5 449.45 3.51 86.07 2959.01 125.95 2959.01 397.46"/>
    <polygon class="cls-1" points="578.78 105.12 882.38 168.22 660.71 95.42 578.78 95.42 578.78 105.12"/>
    <polygon class="cls-1" points="578.78 381.37 739.19 349.01 578.78 358.72 578.78 381.37"/>
    <polygon class="cls-1" points="784.36 433.06 890.34 399.08 842.4 432.45 784.36 433.06"/>
    <polygon class="cls-1" points="2285.78 213.1 2067.82 237.91 2285.78 251.39 2285.78 213.1"/>
    <polygon class="cls-1" points="2285.78 311.08 2213.79 306.04 2285.78 319.7 2285.78 311.08"/>
    <g class="cls-5">
      <image width="1287" height="282" transform="translate(1743.75 463.16) rotate(4.61) scale(.53 -.52) skewX(.26)" xlink:href="../OneDrive - EDUGIECCIP/Documents/Dessin/Nouveau dossier/test.png"/>
    </g>
    <g class="cls-4">
      <image width="1500" height="900" transform="translate(1769.63 481.07) rotate(-180) scale(.8 .66)" xlink:href="../OneDrive - EDUGIECCIP/Documents/Dessin/Nouveau dossier/test1.png"/>
    </g>
  </g>
</svg>