<?xml version="1.0" encoding="UTF-8"?>
<svg id="Calque_2" data-name="Calque 2" xmlns="http://www.w3.org/2000/svg" viewBox="0 0 1148.82 332.68">
  <defs>
    <style>
      .cls-1 {
        fill: #fff;
        opacity: .98;
      }

      .cls-1, .cls-2 {
        stroke: #1d1d1b;
        stroke-miterlimit: 10;
        stroke-width: 7px;
      }

      .cls-2 {
        fill: #a9c7ea;
      }

      .cls-3 {
        fill: #1d1d1b;
        stroke-width: 0px;
      }
    </style>
  </defs>
  <g id="Calque_27" data-name="Calque 27">
    <polygon class="cls-2" points="276.43 3.56 295.37 54.13 97.87 40.84 211.12 125.55 13.73 175.16 219.21 231.86 188.47 304.94 287.17 275.05 265.63 329.09 939.1 316.57 921.42 285.01 1041.15 298.3 987.75 241.71 1138.23 255.11 1015.26 149.87 1096.16 113.33 987.75 113.33 1095.65 12.84 1003.83 11.61 939.1 50.81 952.84 10.92 276.43 3.56"/>
    <g>
      <path class="cls-1" d="M531.57,81.1l22.92,46.03,22.54-42.02,36.1,4.97-37.43,68.95,33.23,62.65-47.94,2.29-15.66-38.96-14.13,37.05-32.85-.95,35.91-64.17-30.75-68.38,28.08-7.45Z"/>
      <path class="cls-1" d="M625.92,94.85c22.35-7.26,50.61-8.59,68.19-4.01,17.57,4.58,29.03,42.59,6.88,64.75l-48.89,34.95,61.5-9.74-.76,39.34-92.06-2.29,2.86-41.83,63.03-38.96c3.44-3.63-2.1-13.75-8.02-14.52s-27.89,2.48-47.18,6.3l-5.54-34Z"/>
    </g>
    <g>
      <path class="cls-3" d="M424.99,275.89c-1.44-.77-1.58-6.62-1.01-9.84l6.24-.67-.62,4.9h5.42l-1.34-20.02,8.54-1.01c.62,10.18.38,23.86-.96,25.87-1.34,2.02-14.83,1.54-16.27.77ZM440.88,239.41l.34,7.78h-7.1l.34-7.49,6.43-.29Z"/>
      <path class="cls-3" d="M444.86,238.54l6.67.24.19,8.4-2.74.58-.62-3.12-3.89.24.38-6.34Z"/>
      <path class="cls-3" d="M454.22,248.24c6.1-1.44,16.75-1.54,18.29.05,1.54,1.58,2.78,14.45,3.89,21.65-7.39.38-20.31,1.49-21.51.82s-1.63-8.64-.43-9.79,8.45-1.68,13.01-2.5v-5.71l-5.57.29v4.42l-8.26-.29.58-8.93ZM463.68,267.15l6.43-1.1-.19-3.94-6.72,1.49.48,3.55Z"/>
      <path class="cls-3" d="M486.86,252.13l.58,17.81-9.12.82,1.15-18.24,7.39-.38ZM486.43,242.29l.14,7.2-6.91.58.34-7.49,6.43-.29Z"/>
      <path class="cls-3" d="M502.56,246.18l20.4,1.39c1.1,3.89,1.1,15.07-.53,16.47-1.63,1.39-7.87,2.54-12.96,2.02l.77,12.67-8.88.38,1.2-32.93ZM514.99,257.12c1.1-.58,2.11-5.47.72-6.14-1.39-.67-4.9-1.01-8.06-.82l-.34,8.16c3.31.24,6.58-.62,7.68-1.2Z"/>
      <path class="cls-3" d="M534.48,237.39l-.14,32.07-7.25.82-1.39-33.22,8.79.34Z"/>
      <path class="cls-3" d="M542.35,271.67c-2.54,0-4.56-.34-4.99-1.15-1.34-2.5-1.15-15.55,0-20.4l8.3-.05c-.29,5.23-.14,14.21.24,14.88.14.29.86.43,1.58.43,1.01,0,2.16-.29,2.21-1.01.1-1.25-.53-9.89-1.39-14.26l9.46-.77c.05,6.1.29,18.24-1.63,19.97-1.1,1.01-8.59,2.35-13.78,2.35Z"/>
      <path class="cls-3" d="M568.65,253.04h-.29c-1.1.14-2.06,1.97-1.44,2.64l8.64,4.18c2.3,2.16-.19,9.17-2.54,10.13-2.3.91-8.64,1.68-12.91,1.63v-7.83c1.34.53,3.46.86,5.52.86s3.94-.34,5.14-1.15l-8.98-4.08c-4.03-4.03-1.34-11.09,1.82-11.91,1.25-.34,2.78-.53,4.46-.53,2.59,0,5.42.43,7.92,1.25l-1.01,6.14c-3.22-.67-5.23-1.34-6.34-1.34Z"/>
      <path class="cls-3" d="M596.39,271.67c-2.54,0-4.56-.34-4.99-1.15-1.34-2.5-1.15-15.55,0-20.4l8.3-.05c-.29,5.23-.14,14.21.24,14.88.14.29.86.43,1.58.43,1.01,0,2.16-.29,2.21-1.01.1-1.25-.53-9.89-1.39-14.26l9.46-.77c.05,6.1.29,18.24-1.63,19.97-1.1,1.01-8.59,2.35-13.78,2.35Z"/>
      <path class="cls-3" d="M615.02,248.43l4.75-1.54,2.26,3.17c4.61,0,10.61,1.44,11.95,3.94,1.34,2.5.29,11.09-.86,15.94l-8.3.05c.29-5.23.14-13.1-.24-13.78-.14-.29-.86-.43-1.58-.43-1.01,0-2.16.29-2.21,1.01-.1,1.25.53,8.79,1.39,13.15l-9.46.77,2.83-18.1-.53-4.18Z"/>
      <path class="cls-3" d="M647.51,248.48c2.74,0,5.28.29,6.14.86,2.16,1.44,2.83,8.98,1.34,10.46-1.15,1.15-6.91,1.92-11.52,2.02l-.24,3.98h5.62l-.48-2.26h7.06l-1.01,7.73c-1.58.34-3.41.48-5.23.48-4.75,0-9.75-1.01-11.76-2.59-2.88-2.21-1.1-17.23.38-19.06.86-1.01,5.57-1.63,9.7-1.63ZM649.05,256.93l-.29-4.08-4.75-.1-.24,4.03,5.28.14Z"/>
      <path class="cls-3" d="M677.99,269.27v4.42l5.57.29v-5.71c-4.56-.82-11.81-1.34-13.01-2.5-1.2-1.15-.77-15.79.43-16.47s14.07-.72,21.51.1c-.43,7.01-1.06,27.7-2.59,29.28-1.54,1.58-13.49,1.25-19.59-.19l-.58-8.93,8.26-.29ZM686.01,260.53l.19-7.25-6.43-.38-.48,7.44,6.72.19Z"/>
      <path class="cls-3" d="M707.08,246.99c3.36,0,6.34.53,7.15,1.82,2.54,4.08,1.06,17.52-1.01,20.55-.67.96-4.08,1.44-7.63,1.44s-7.54-.53-8.59-1.58c-2.78-2.88-3.31-15.12-1.58-19.2.77-1.82,6.67-3.02,11.67-3.02ZM700.7,262.31c.53.53,2.35.77,4.13.77s3.36-.24,3.7-.72c.58-.86,1.58-6.29.53-7.87-.43-.58-1.97-.86-3.65-.86-2.45,0-5.18.58-5.42,1.49-.34,1.54-.34,6.19.72,7.2Z"/>
      <path class="cls-3" d="M723.45,271.67c-2.54,0-4.56-.34-4.99-1.15-1.34-2.5-1.15-15.55,0-20.4l8.3-.05c-.29,5.23-.14,14.21.24,14.88.14.29.86.43,1.58.43,1.01,0,2.16-.29,2.21-1.01.1-1.25-.53-9.89-1.39-14.26l9.46-.77c.05,6.1.29,18.24-1.63,19.97-1.1,1.01-8.59,2.35-13.78,2.35Z"/>
      <path class="cls-3" d="M753.3,238.64l-.05,8.88,5.76.53-.29,4.99-5.47.53-.1,17.14-7.25.82-.58-15.84-4.42-.1-.1-6.72,4.13-.67-.43-9.89,8.79.34Z"/>
      <path class="cls-3" d="M773.42,238.64l-.05,8.88,5.76.53-.29,4.99-5.47.53-.1,17.14-7.25.82-.58-15.84-4.42-.1-.1-6.72,4.13-.67-.43-9.89,8.79.34Z"/>
      <path class="cls-3" d="M791.13,248.48c2.74,0,5.28.29,6.14.86,2.16,1.44,2.83,8.98,1.34,10.46-1.15,1.15-6.91,1.92-11.52,2.02l-.24,3.98h5.62l-.48-2.26h7.06l-1.01,7.73c-1.58.34-3.41.48-5.23.48-4.75,0-9.75-1.01-11.76-2.59-2.88-2.21-1.1-17.23.38-19.06.86-1.01,5.57-1.63,9.7-1.63ZM792.66,256.93l-.29-4.08-4.75-.1-.24,4.03,5.28.14Z"/>
      <path class="cls-3" d="M822.14,238.78l-1.15,23.67-6.24-.34-1.39-23.67,8.79.34ZM814.31,264.66l6.67.24v4.9l-6.67.48v-5.62Z"/>
    </g>
  </g>
</svg>