<?xml version="1.0" encoding="UTF-8"?>
<svg id="Calque_2" data-name="Calque 2" xmlns="http://www.w3.org/2000/svg" viewBox="0 0 1148.82 332.68">
  <defs>
    <style>
      .cls-1 {
        fill: #fff;
        opacity: .98;
      }

      .cls-1, .cls-2 {
        stroke: #1d1d1b;
        stroke-miterlimit: 10;
        stroke-width: 7px;
      }

      .cls-2 {
        fill: #f39000;
      }

      .cls-3 {
        fill: #1d1d1b;
        stroke-width: 0px;
      }
    </style>
  </defs>
  <g id="Calque_30" data-name="Calque 30">
    <polygon class="cls-2" points="276.43 3.56 295.37 54.13 97.87 40.84 211.12 125.55 13.73 175.16 219.21 231.86 188.47 304.94 287.17 275.05 265.63 329.09 939.1 316.57 921.42 285.01 1041.15 298.3 987.75 241.71 1138.23 255.11 1015.26 149.87 1096.16 113.33 987.75 113.33 1095.65 12.84 1003.83 11.61 939.1 50.81 952.84 10.92 276.43 3.56"/>
    <g>
      <path class="cls-1" d="M535.39,116.44l14.71,29.22,13.75-25.59,25.21,3.63-23.88,51,24.45,38.58-37.05,4.01-10.89-27.31-9.93,25.98-28.65-.19,27.88-47.94-19.29-44.69,23.68-6.68Z"/>
      <path class="cls-1" d="M705.76,117.58c-1.53,5.16-8.98,19.86-20.63,27.5,16.62,10.5,23.87,30.37,23.49,38.2-.38,7.83-19.29,39.15-28.46,40.3-8.02.95-64.56-2.67-68.38-6.11-6.88-5.73-13.94-26.36-14.33-34.19-.38-7.83,6.11-27.69,22.73-38.2-11.65-7.64-18.34-22.35-19.86-27.5-1.53-5.16,11.27-31.51,18.14-35.52,11.08-6.3,66.27,2.1,74.49,6.49,4.2,2.29,14.33,23.87,12.8,29.03ZM669.09,194.74l4.39-30.37-38.39-.57.57,27.69,33.42,3.25ZM666.98,130.76l3.44-18.72-34-1.72v22.92l30.56-2.48Z"/>
    </g>
    <g>
      <path class="cls-3" d="M492.14,237.82c1.49,0,2.93.1,4.18.24l1.68,12-9.79,1.44.67-7.87h-5.18l-.91,21.51h6.43l-.58-4.22h10.51l-1.15,10.42c-1.39.29-2.98.43-4.7.43-6.34,0-14.16-1.78-16.71-3.74-3.26-2.5-1.68-25.35,0-27.36,1.34-1.63,9.22-2.83,15.55-2.83Z"/>
      <path class="cls-3" d="M510.62,237.68l-.43,11.33,7.58-.43-.34-9.5,7.3-.77.34,33.46-9.41-.43.24-14.02-5.04-.38.34,13.54-10.13.82.72-33.22,8.83-.38Z"/>
      <path class="cls-3" d="M533.08,238.06c.72-1.39,4.7-1.97,8.26-1.97,2.69,0,5.09.34,5.76.82,1.54,1.15,5.28,23.23,6.48,34.61l-12,.72.58-8.64-5.33.29-.62,8.64-9.22.1c1.82-11.47,4.85-32.12,6.1-34.56ZM537.69,256.83h5.9c0-4.18-.34-11.9-.82-12.24-.19-.14-.53-.19-.96-.19-.67,0-1.49.19-1.97.67-.82.82-1.78,8.26-2.16,11.76Z"/>
      <path class="cls-3" d="M564.38,238.26l-.58,25.83,7.73-.77-.34-24.05,9.17-.77c1.49,10.46,1.73,28.18-.58,30.67-2.3,2.5-21.46,1.82-23.52-.29-2.06-2.11-2.93-22.18-.72-30.24l8.83-.38Z"/>
      <path class="cls-3" d="M591.26,235.76c4.42,0,9.26.53,12.29,1.87,4.7,2.06,5.38,28.42,3.26,30.34-2.11,1.92-15.6,2.98-23.38,3.12l1.2-34.85c1.82-.29,4.18-.48,6.62-.48ZM590.64,264.51c1.01.14,3.17.34,4.94.34,1.34,0,2.5-.1,2.74-.48.58-.86.38-20.88-.19-21.6-.58-.72-6.14-1.82-7.78-1.49l.29,23.23Z"/>
      <path class="cls-3" d="M629.71,235.76c4.42,0,9.26.53,12.29,1.87,4.7,2.06,5.38,28.42,3.26,30.34-2.11,1.92-15.6,2.98-23.38,3.12l1.2-34.85c1.82-.29,4.18-.48,6.62-.48ZM629.08,264.51c1.01.14,3.17.34,4.94.34,1.34,0,2.5-.1,2.74-.48.58-.86.38-20.88-.19-21.6-.58-.72-6.14-1.82-7.78-1.49l.29,23.23Z"/>
      <path class="cls-3" d="M668.68,235.52l-.77,9.36h-11.95l-.29,4.03,9.02-.72-.24,6.43h-6.96l-.62,8.93h11.14v6.96l-19.68-.77.86-33.51,19.49-.72Z"/>
      <path class="cls-3" d="M689.23,269.7c-.43,1.87-11.47,2.16-13.01,1.01-1.54-1.15-4.42-21.75-5.62-33.12l10.56-1.54,1.3,28.27,2.45-.24,4.22-27.07,7.44.96-7.34,31.73Z"/>
      <path class="cls-3" d="M699.31,238.06c.72-1.39,4.7-1.97,8.26-1.97,2.69,0,5.09.34,5.76.82,1.54,1.15,5.28,23.23,6.48,34.61l-12,.72.58-8.64-5.33.29-.62,8.64-9.22.1c1.82-11.47,4.85-32.12,6.1-34.56ZM703.92,256.83h5.9c0-4.18-.34-11.9-.82-12.24-.19-.14-.53-.19-.96-.19-.67,0-1.49.19-1.97.67-.82.82-1.78,8.26-2.16,11.76Z"/>
      <path class="cls-3" d="M721.72,270.51l.48-33.6,7.92-1.39,8.16,17.33.77-16.85,9.17.48-2.5,32.55-7.87.58-8.02-19.25,1.01,19.73-9.12.43Z"/>
      <path class="cls-3" d="M771.12,235.66l-.34,9.36-6.91-.19,1.58,24.1-10.22.53.82-23.52-5.9.19.29-9.31,20.69-1.15Z"/>
    </g>
  </g>
</svg>