<svg width="382" height="160" viewBox="0 0 382 160" fill="none" xmlns="http://www.w3.org/2000/svg">
<path d="M4.49979 57.4535C-3.40777 35.3192 10.1192 8.99815 31.0676 3.44795C82 -10.0464 52.7495 19.5067 75.2257 32.9535C91.4797 42.6778 107.314 38.7141 109.847 57.4535C109.199 50.159 109.471 45.707 109.471 45.707C109.471 45.707 111.234 67.7189 109.847 57.4535C110.564 65.5304 112.409 77.0922 117 89.9534C125.59 114.022 114.379 138.536 91.9996 150.953C78.3126 158.548 41.9997 169.953 39.4997 141.453C37.4899 118.541 103.162 110.894 103.162 110.894L55.3996 93.8103L75.2257 71.3321C75.2257 71.3321 13.9692 83.9597 4.49979 57.4535Z" fill="#131327"/>
<path d="M26.4152 139.615C28.7622 134.99 25.0617 131.47 22.6593 126.922C19.2388 120.445 16.8462 113.06 9.65341 113.611C0.135698 114.34 1.94372 132.819 9.53539 138.67C14.793 142.721 23.353 145.65 26.4152 139.615Z" fill="#131327"/>
<circle cx="88" cy="84" r="59" fill="#131327"/>
<circle cx="97" cy="76" r="57.5" fill="#F29004" stroke="#F2F2F2" stroke-width="3"/>
<g clip-path="url(#clip0_450_11)">
<path d="M211.854 139C211.854 139 329.31 103.566 358.65 123.25L211.854 139Z" fill="#F2F2F2"/>
<path d="M211.853 139C245.705 122.51 314.486 104.539 350.441 118.163C353.441 119.389 356.326 121.071 358.639 123.25C352.765 120.828 346.648 120.468 340.562 120.415C334.466 120.405 328.369 120.881 322.273 121.526C286.636 125.514 247.543 134.758 211.843 138.989L211.853 139Z" fill="#F29005"/>
<path d="M187.605 95.8864L188.662 21.8444L206.095 18.777L224.056 56.9615L225.747 19.8347L245.927 20.8925L240.433 92.6074L223.105 93.8767L205.461 51.4612L207.68 94.9344L187.605 95.8864Z" fill="#F29004" stroke="#F2F2F2" stroke-width="3" stroke-miterlimit="10"/>
<path d="M272.34 47.3361C278.363 47.3361 283.962 47.9707 285.864 49.24C290.618 52.4132 292.098 69.0198 288.822 72.2988C286.287 74.8374 273.608 76.5297 263.465 76.7413L262.937 85.5206H275.299L274.242 80.5492H289.773L287.554 97.5788C284.068 98.3192 280.053 98.6366 276.038 98.6366C265.578 98.6366 254.59 96.4153 250.153 92.9248C243.813 88.0591 247.723 54.9518 250.998 50.9324C252.9 48.7111 263.254 47.3361 272.34 47.3361ZM275.721 65.9523L275.087 56.9615L264.627 56.75L264.099 65.635L275.721 65.9523Z" fill="#F29004" stroke="#F2F2F2" stroke-width="3" stroke-miterlimit="10"/>
<path d="M308.791 40.355L316.927 56.5384L324.534 42.3647L338.48 44.3744L325.273 72.6161L338.797 93.9825L318.3 96.2038L312.278 81.0781L306.784 95.4634L290.936 95.3576L306.361 68.8083L295.69 44.0571L308.791 40.355Z" fill="#F29004" stroke="#F2F2F2" stroke-width="3" stroke-miterlimit="10"/>
<path d="M367.757 25.6523L367.652 45.2205L380.33 46.384L379.696 57.3846L367.652 58.5481L367.44 96.3095L351.487 98.1076L350.219 63.2021L340.498 62.9906L340.287 48.1822L349.373 46.7014L348.423 24.9119L367.757 25.6523Z" fill="#F29004" stroke="#F2F2F2" stroke-width="3" stroke-miterlimit="10"/>
</g>
<path d="M112.117 104H88.708V84.2281C88.708 82.9218 88.1952 81.6819 87.2588 80.7519C86.3225 79.822 85.0739 79.3128 83.7586 79.3128H76V59.563H88.0169C92.0745 59.563 96.0653 60.5815 99.6101 62.552L102.397 64.279C105.407 66.4931 107.859 69.3936 109.531 72.7147C111.203 76.0359 112.095 79.7113 112.095 83.431V103.978L112.117 104ZM108.439 63.9912C106.744 63.9912 105.095 63.5041 103.69 62.5742C102.286 61.6442 101.193 60.3158 100.524 58.7659C99.8776 57.216 99.6993 55.5112 100.034 53.8506C100.368 52.2122 101.171 50.6844 102.375 49.4888C103.579 48.2932 105.095 47.4961 106.767 47.164C108.417 46.8319 110.156 47.009 111.716 47.6511C113.277 48.2932 114.614 49.3781 115.551 50.773C116.487 52.1679 117 53.8063 117 55.489C117 57.7253 116.086 59.8951 114.481 61.4671C112.875 63.0613 110.713 63.9469 108.439 63.9469V63.9912Z" fill="#131327"/>
<defs>
<clipPath id="clip0_450_11">
<rect width="196" height="122" fill="white" transform="translate(186 17)"/>
</clipPath>
</defs>
</svg>
