<svg width="381" height="160" viewBox="0 0 381 160" fill="none" xmlns="http://www.w3.org/2000/svg">
<path d="M4.49979 57.4535C-3.40777 35.3192 10.1192 8.99815 31.0676 3.44795C82 -10.0464 52.7495 19.5067 75.2257 32.9535C91.4797 42.6778 107.314 38.7141 109.847 57.4535C109.199 50.159 109.471 45.707 109.471 45.707C109.471 45.707 111.234 67.7189 109.847 57.4535C110.564 65.5304 112.409 77.0922 117 89.9534C125.59 114.022 114.379 138.536 91.9996 150.953C78.3126 158.548 41.9997 169.953 39.4997 141.453C37.4899 118.541 103.162 110.894 103.162 110.894L55.3996 93.8103L75.2257 71.3321C75.2257 71.3321 13.9692 83.9597 4.49979 57.4535Z" fill="#131327"/>
<g clip-path="url(#clip0_450_10)">
<path d="M213.458 154.453C213.458 154.453 329.117 117.276 358.008 137.929L213.458 154.453Z" fill="#F2F2F2"/>
<path d="M213.458 154.453C246.74 136.941 314.51 118.087 349.945 132.547C352.899 133.845 355.74 135.632 358.008 137.929C352.202 135.421 346.189 135.077 340.196 135.033C334.204 135.033 328.201 135.554 322.208 136.253C287.127 140.504 248.643 150.192 213.458 154.442V154.453Z" fill="#131327"/>
<path d="M189.581 109.22L190.621 31.5362L207.788 28.3179L225.474 68.3803L227.139 29.4276L247.01 30.5374L241.6 105.779L224.538 107.111L207.163 62.6095L209.348 108.221L189.581 109.22Z" fill="#131327" stroke="#F2F2F2" stroke-width="3" stroke-miterlimit="10"/>
<path d="M273.019 58.2815C278.949 58.2815 284.463 58.9474 286.336 60.2791C291.018 63.6084 292.474 81.0316 289.249 84.4719C286.752 87.1353 274.268 88.9109 264.28 89.1329L263.76 98.3439H275.932L274.892 93.128H290.185L288 110.995C284.567 111.772 280.614 112.105 276.66 112.105C266.361 112.105 255.541 109.774 251.171 106.112C244.929 101.007 248.778 66.2718 252.003 62.0547C253.876 59.7242 264.072 58.2815 273.019 58.2815ZM276.348 77.8133L275.724 68.3803L265.424 68.1584L264.904 77.4804L276.348 77.8133Z" fill="#131327" stroke="#F2F2F2" stroke-width="3" stroke-miterlimit="10"/>
<path d="M308.912 50.957L316.923 67.9364L324.414 53.0656L338.147 55.1741L325.142 84.8048L338.459 107.222L318.276 109.552L312.346 93.6829L306.936 108.776L291.33 108.665L306.52 80.8096L296.012 54.8412L308.912 50.957Z" fill="#131327" stroke="#F2F2F2" stroke-width="3" stroke-miterlimit="10"/>
<path d="M366.976 35.5314L366.871 56.062L379.356 57.2827L378.732 68.8242L366.871 70.045L366.663 109.663L350.954 111.55L349.705 74.9279L340.134 74.706L339.926 59.1693L348.873 57.6156L347.937 34.7545L366.976 35.5314Z" fill="#131327" stroke="#F2F2F2" stroke-width="3" stroke-miterlimit="10"/>
</g>
<circle cx="81" cy="85.4535" r="59" fill="#131327"/>
<circle cx="90" cy="77.4535" r="57.5" fill="#F29004" stroke="#F2F2F2" stroke-width="3"/>
<path d="M26.4152 139.615C28.7622 134.99 25.0617 131.47 22.6593 126.921C19.2388 120.445 16.8462 113.06 9.65341 113.611C0.135698 114.34 1.94372 132.819 9.53539 138.669C14.793 142.721 23.353 145.649 26.4152 139.615Z" fill="#131327"/>
<path d="M105.117 105.453H81.708V85.6816C81.708 84.3752 81.1952 83.1354 80.2588 82.2054C79.3225 81.2755 78.0739 80.7663 76.7586 80.7663H69V61.0165H81.0169C85.0745 61.0165 89.0653 62.035 92.6101 64.0055L95.397 65.7325C98.4068 67.9466 100.859 70.8471 102.531 74.1682C104.203 77.4894 105.095 81.1648 105.095 84.8845V105.431L105.117 105.453ZM101.439 65.4447C99.7444 65.4447 98.0946 64.9576 96.6901 64.0277C95.2855 63.0977 94.193 61.7693 93.5242 60.2194C92.8776 58.6695 92.6993 56.9647 93.0337 55.3041C93.3681 53.6657 94.1707 52.1379 95.3747 50.9423C96.5786 49.7467 98.0946 48.9496 99.7667 48.6175C101.417 48.2854 103.156 48.4625 104.716 49.1046C106.277 49.7467 107.614 50.8316 108.551 52.2265C109.487 53.6214 110 55.2598 110 56.9425C110 59.1788 109.086 61.3486 107.481 62.9206C105.875 64.5148 103.713 65.4004 101.439 65.4004V65.4447Z" fill="#131327"/>
<defs>
<clipPath id="clip0_450_10">
<rect width="193" height="128" fill="white" transform="translate(188 26.4535)"/>
</clipPath>
</defs>
</svg>
