<svg width="489" height="193" viewBox="0 0 489 193" fill="none" xmlns="http://www.w3.org/2000/svg">
<path d="M9.06763 33.9945C7.18794 55.584 45.1151 76.2535 45.1151 76.2535L53.2258 101.879L33.3997 124.357L81.1625 141.44C81.1625 141.44 73.7991 174.727 87.4708 185.498C99.7622 195.181 113.887 193.092 127.574 185.498C149.953 173.081 145.626 144.829 137.036 120.76C128.3 96.2839 87.4708 76.2535 87.4708 76.2535C87.4708 76.2535 88.8584 59.9947 87.4708 49.7292C84.9379 30.9899 85.7011 14.4971 69.4471 4.77282C46.9709 -8.67398 11.3356 7.94508 9.06763 33.9945Z" fill="#131327"/>
<g clip-path="url(#clip0_450_13)">
<path d="M193.28 60.5C201.89 60.5 209.97 61.13 213.44 62.6C220.47 65.54 219.32 109.11 215.86 112.05C214.91 112.78 212.92 113.62 210.29 114.36L221 144.49L196.43 147.01L193.18 117.3C190.87 117.51 188.88 117.51 187.41 117.4L188.35 137.35L167.56 138.3L170.18 62.08C175.75 61.14 184.77 60.5 193.28 60.5ZM187.19 105.12C191.07 105.64 200.31 104.28 201.57 102.39C202.83 100.5 202.52 82.02 201.26 80.45C200 78.88 191.92 77.41 188.34 78.14L187.19 105.12Z" fill="#F29004" stroke="#F2F2F2" stroke-width="3" stroke-miterlimit="10"/>
<path d="M248.44 91.79C254.42 91.79 259.99 92.42 261.88 93.68C266.6 96.83 268.07 113.31 264.82 116.57C262.3 119.09 249.7 120.77 239.62 120.98L239.1 129.69H251.38L250.33 124.75H265.76L263.55 141.65C260.09 142.39 256.09 142.7 252.11 142.7C241.72 142.7 230.8 140.49 226.39 137.03C220.09 132.2 223.97 99.34 227.23 95.35C229.12 93.14 239.41 91.78 248.44 91.78V91.79ZM251.8 110.27L251.17 101.35L240.78 101.14L240.25 109.96L251.8 110.27Z" fill="#F29004" stroke="#F2F2F2" stroke-width="3" stroke-miterlimit="10"/>
<path d="M289.62 101.76H288.99C286.57 102.07 284.48 106.06 285.84 107.53L304.74 116.66C309.78 121.38 304.32 136.71 299.18 138.81C294.14 140.8 280.28 142.48 270.94 142.38V125.27C273.88 126.42 278.5 127.16 283.02 127.16C287.54 127.16 291.63 126.43 294.25 124.64L274.62 115.72C265.8 106.9 271.68 91.47 278.61 89.68C281.34 88.95 284.7 88.53 288.37 88.53C294.04 88.53 300.23 89.47 305.69 91.26L303.48 104.7C296.45 103.23 292.04 101.76 289.62 101.76Z" fill="#F29004" stroke="#F2F2F2" stroke-width="3" stroke-miterlimit="10"/>
<path d="M334.89 70.26L334.79 89.68L347.39 90.83L346.76 101.75L334.79 102.9L334.58 140.38L318.73 142.17L317.47 107.52L307.81 107.31L307.6 92.61L316.63 91.14L315.68 69.51L334.89 70.24V70.26Z" fill="#F29004" stroke="#F2F2F2" stroke-width="3" stroke-miterlimit="10"/>
<path d="M349.63 91.26C362.96 88.11 386.27 87.9 389.63 91.36C392.99 94.82 395.72 122.96 398.13 138.71C381.96 139.55 353.72 141.96 351.09 140.49C348.47 139.02 347.52 121.59 350.14 119.07C352.76 116.55 368.62 115.4 378.59 113.61V101.12L366.41 101.75V111.41L348.35 110.78L349.61 91.25L349.63 91.26ZM370.32 132.63L384.39 130.21L383.97 121.6L369.27 124.85L370.32 132.62V132.63Z" fill="#F29004" stroke="#F2F2F2" stroke-width="3" stroke-miterlimit="10"/>
<path d="M404.97 91.6801L415.36 88.3201L420.29 95.2501C430.37 95.2501 443.91 95.7701 445.28 99.3401C446.23 101.76 446.33 108.05 445.07 114.46L429.11 115.93C427.32 111.2 426.28 109.42 425.86 108.69C425.75 108.48 425.02 108.27 424.07 108.27C422.39 108.27 420.29 108.79 420.29 109.84C420.29 111.52 419.66 127.58 420.61 138.71L399.93 140.39L406.13 100.81L404.97 91.6801Z" fill="#F29004" stroke="#F2F2F2" stroke-width="3" stroke-miterlimit="10"/>
<path d="M474.17 70.26L474.07 89.68L486.67 90.83L486.04 101.75L474.07 102.9L473.86 140.38L458.01 142.17L456.75 107.52L447.09 107.31L446.88 92.61L455.91 91.14L454.96 69.51L474.17 70.24V70.26Z" fill="#F29004" stroke="#F2F2F2" stroke-width="3" stroke-miterlimit="10"/>
<path d="M183.93 192.22C183.93 192.22 406.27 148.53 461.8 172.8L183.93 192.22Z" fill="#F2F2F2"/>
<path d="M183.93 192.22C251.19 169.52 376.79 148.05 445.32 165.96C451.07 167.56 456.75 169.73 461.8 172.8C450.42 169.96 438.85 169.92 427.26 170.04C345.79 173.15 265.48 188.15 183.93 192.21V192.22Z" fill="#F29005"/>
</g>
<circle cx="59" cy="116" r="59" fill="#131327"/>
<circle cx="68" cy="108" r="57.5" fill="#F29004" stroke="#F2F2F2" stroke-width="3"/>
<path d="M100.412 24.0077C98.4183 30.4946 104.083 34.1741 108.289 39.4747C114.277 47.0215 119.131 55.9722 128.419 53.6159C140.708 50.4979 134.032 27.1419 122.73 21.3562C114.902 17.3493 103.014 15.5439 100.412 24.0077Z" fill="#131327"/>
<path d="M96 104.928H80.5076C80.1286 104.928 79.7733 105.046 79.489 105.282C79.2047 105.518 78.9915 105.849 78.9205 106.204C78.8731 106.416 78.8968 106.653 78.9442 106.842C78.9915 107.054 79.11 107.243 79.2521 107.409C79.3942 107.574 79.5601 107.716 79.7733 107.81C79.9628 107.905 80.1997 107.952 80.4129 107.952H96V135.952H83.8477C76.2674 135.692 69.824 131.344 68.1658 124.374C68.1658 124.279 68.0948 124.208 68.0237 124.161C67.9526 124.114 67.8579 124.067 67.7631 124.067C67.6684 124.067 67.5736 124.09 67.5025 124.161C67.4315 124.208 67.3841 124.303 67.3604 124.374C66.5787 127.682 64.7073 130.612 62.0304 132.738C59.3536 134.841 56.0609 135.999 52.6497 135.999H40.0011C40.0007 136 40.0004 136 40 135.999H40.0011C40.0467 135.789 40 107.952 40 107.952H54.4738C54.8528 107.952 55.2081 107.834 55.4924 107.598C55.7767 107.361 55.9662 107.054 56.0372 106.676C56.0846 106.464 56.0609 106.227 56.0135 106.015C55.9662 105.802 55.8477 105.613 55.7056 105.448C55.5634 105.282 55.3739 105.14 55.1844 105.046C54.9949 104.951 54.758 104.904 54.5448 104.904H40V80H53.0051C56.3452 80.0945 59.5431 81.2759 62.1252 83.3788C64.7073 85.4817 66.5313 88.3644 67.2893 91.6014C67.2893 91.696 67.3604 91.7905 67.4315 91.8377C67.5025 91.9086 67.5973 91.9322 67.692 91.9322C67.7868 91.9322 67.8815 91.9086 67.9526 91.8377C68.0237 91.7668 68.0711 91.696 68.0948 91.6014C68.8765 88.2935 70.7479 85.3636 73.4247 83.2607C76.1015 81.1578 79.3942 80 82.8054 80H95.9763V104.904L96 104.928Z" fill="#131327"/>
<defs>
<clipPath id="clip0_450_13">
<rect width="322.25" height="133.22" fill="white" transform="translate(166 59)"/>
</clipPath>
</defs>
</svg>
