<?xml version="1.0" encoding="UTF-8" standalone="no"?>
<!DOCTYPE svg PUBLIC "-//W3C//DTD SVG 1.1//EN" "http://www.w3.org/Graphics/SVG/1.1/DTD/svg11.dtd">
<svg width="100%" height="100%" viewBox="0 0 25 145" version="1.1" xmlns="http://www.w3.org/2000/svg" xmlns:xlink="http://www.w3.org/1999/xlink" xml:space="preserve" xmlns:serif="http://www.serif.com/" style="fill-rule:evenodd;clip-rule:evenodd;stroke-linejoin:round;stroke-miterlimit:2;">
    <g transform="matrix(0.5,3.52682e-19,-3.52682e-19,-0.49712,-8.38291e-16,36.25)">
        <path d="M0,-218.76L-0,72.92L37.955,72.92C37.738,72.178 37.591,71.474 37.563,70.822C37.449,68.2 40.807,64.945 40.787,58.954C40.776,55.752 38.844,53.978 38.741,52.091C38.635,50.154 40.302,47.915 40.152,45.757C39.956,42.919 37.571,40.912 39.819,35.064C42.111,29.102 37.553,26.949 38.589,21.262C39.523,16.133 41.65,10.998 41.65,8.227C41.65,2.383 38.251,3.024 37.563,-2.779C36.859,-8.713 39.855,-11.288 39.898,-14.279C39.953,-18.191 37.824,-19.767 37.63,-22.883C37.474,-25.378 38.732,-30.94 38.732,-32.974C38.732,-34.62 37.548,-36.126 37.563,-37.772C37.579,-39.634 38.829,-42.138 38.829,-44.15C38.829,-46.095 37.37,-47.911 37.563,-49.846C37.88,-53.03 40.735,-59.057 40.735,-63.252C40.735,-66.491 38.807,-70.001 37.955,-72.92C37.738,-73.662 37.591,-74.366 37.563,-75.018C37.449,-77.64 40.807,-80.895 40.787,-86.886C40.776,-90.088 38.844,-91.862 38.741,-93.749C38.635,-95.686 40.302,-97.925 40.152,-100.083C39.956,-102.921 37.571,-104.928 39.819,-110.776C42.111,-116.738 37.553,-118.891 38.589,-124.578C39.523,-129.707 41.65,-134.842 41.65,-137.613C41.65,-143.457 38.251,-142.816 37.563,-148.619C36.859,-154.553 39.855,-157.128 39.898,-160.119C39.953,-164.031 37.824,-165.607 37.63,-168.723C37.474,-171.218 38.732,-176.78 38.732,-178.814C38.732,-180.46 37.548,-181.966 37.563,-183.612C37.579,-185.474 38.829,-187.978 38.829,-189.99C38.829,-191.935 37.37,-193.751 37.563,-195.686C37.88,-198.87 40.735,-204.897 40.735,-209.092C40.735,-212.331 38.807,-215.841 37.955,-218.76L0,-218.76Z" style="fill:rgb(97,53,26);"/>
    </g>
</svg>
