<?xml version="1.0" encoding="UTF-8"?>
<svg id="Calque_26" data-name="Calque 26" xmlns="http://www.w3.org/2000/svg" viewBox="0 0 469.79 42.03">
  <defs>
    <style>
      .cls-1 {
        fill: #f2f2f2;
        stroke-width: 0px;
      }

      .cls-2 {
        fill: #a9c7ea;
        stroke: #1d1d1b;
        stroke-miterlimit: 10;
        stroke-width: 3px;
      }

      .cls-2, .cls-3 {
        opacity: .99;
      }
    </style>
  </defs>
  <line class="cls-2" x1="180.72" y1="37.56" x2="180.72" y2="26.85"/>
  <line class="cls-2" x1="93.45" y1="37.51" x2="93.45" y2="26.8"/>
  <line class="cls-2" x1="271.56" y1="37.56" x2="271.56" y2="26.85"/>
  <line class="cls-2" x1="362.71" y1="37.56" x2="362.71" y2="26.85"/>
  <g class="cls-3">
    <path class="cls-1" d="M53.75,16.17l1.39,2.75,1.3-2.41,2.38.34-2.25,4.81,2.3,3.64-3.49.38-1.03-2.57-.94,2.45-2.7-.02,2.63-4.52-1.82-4.21,2.23-.63Z"/>
    <path class="cls-1" d="M60.07,14.14c2.11-.68,4.77-.81,6.43-.38,1.66.43,2.74,4.01.65,6.1l-4.61,3.29,5.8-.92-.07,3.71-8.68-.22.27-3.94,5.94-3.67c.32-.34-.2-1.3-.76-1.37-.56-.07-2.63.23-4.45.59l-.52-3.21Z"/>
  </g>
  <g class="cls-3">
    <path class="cls-1" d="M126.16,17.32l1.39,2.75,1.3-2.41,2.38.34-2.25,4.81,2.3,3.64-3.49.38-1.03-2.57-.94,2.45-2.7-.02,2.63-4.52-1.82-4.21,2.23-.63Z"/>
    <path class="cls-1" d="M135.93,27.26l.68-5.28-4.55.45-.07-7.54,3.6.43-.25,4.68,2.52.07-.18-5.38,2.61.25-.97,11.94-3.38.38Z"/>
  </g>
  <g class="cls-3">
    <path class="cls-1" d="M214.51,16.81l1.39,2.75,1.3-2.41,2.38.34-2.25,4.81,2.3,3.64-3.49.38-1.03-2.57-.94,2.45-2.7-.02,2.63-4.52-1.82-4.21,2.23-.63Z"/>
    <path class="cls-1" d="M223.91,17.11l-.18,1.96,4.46.49c1.15,1.08.02,5.56-1.15,6.03-1.13.47-4.65,1.06-6,.23-1.35-.83-.58-10.77.94-11.49,1.51-.72,4.57-.14,6.54.25l-.32,2.68-4.29-.16ZM225.67,22.78l.13-1.5-2.25-.22-.29,1.89c.9.09,1.82.07,2.41-.18Z"/>
  </g>
  <g class="cls-3">
    <path class="cls-1" d="M307.43,16.81l1.39,2.75,1.3-2.41,2.38.34-2.25,4.81,2.3,3.64-3.49.38-1.03-2.57-.94,2.45-2.7-.02,2.63-4.52-1.82-4.21,2.23-.63Z"/>
    <path class="cls-1" d="M323.48,16.91c-.14.49-.85,1.87-1.94,2.59,1.57.99,2.25,2.86,2.21,3.6s-1.82,3.69-2.68,3.8c-.76.09-6.09-.25-6.45-.58-.65-.54-1.31-2.49-1.35-3.22-.04-.74.58-2.61,2.14-3.6-1.1-.72-1.73-2.11-1.87-2.59-.14-.49,1.06-2.97,1.71-3.35,1.04-.59,6.25.2,7.02.61.4.22,1.35,2.25,1.21,2.74ZM320.03,24.19l.42-2.86-3.62-.05.05,2.61,3.15.31ZM319.83,18.16l.32-1.76-3.21-.16v2.16l2.88-.23Z"/>
  </g>
  <g class="cls-3">
    <path class="cls-1" d="M387.3,16.81l1.39,2.75,1.3-2.41,2.38.34-2.25,4.81,2.3,3.64-3.49.38-1.03-2.57-.94,2.45-2.7-.02,2.63-4.52-1.82-4.21,2.23-.63Z"/>
    <path class="cls-1" d="M397.48,14.41l-.05,12.03-3.33.31.74-9.49-1.66-.16-.04-2.11,4.34-.58Z"/>
    <path class="cls-1" d="M405.97,14.77c.92.47,1.73,9.71.59,10.55-1.13.85-6.1,1.4-7.33.47-1.22-.94-1.26-10.26-.63-11.02.63-.76,6.45-.47,7.36,0ZM404.21,23.65l-.92-7.46-2.02.16.29,7.51,2.65-.22Z"/>
  </g>
</svg>