<?xml version="1.0" encoding="UTF-8"?>
<svg id="Calque_2" data-name="Calque 2" xmlns="http://www.w3.org/2000/svg" viewBox="0 0 43.68 145.84">
  <defs>
    <style>
      .cls-1 {
        fill: #775438;
      }

      .cls-1, .cls-2 {
        stroke-width: 0px;
      }

      .cls-2 {
        fill: #61351a;
      }
    </style>
  </defs>
  <g id="Calque_25" data-name="Calque 25">
    <path class="cls-1" d="M39.91,31.08H2.38s1.42,47.82,1.46,83.43c.01,16.2.03,28.18.03,31.34h37.7s-1.04-7.98.35-10.57c.83-1.55.98-5.87.97-9.1,0-2.07-.2-4.02-.52-5.3-.43-1.71-1.03-2.1-1.57-3.2-.31-.64-1.15-4.77-1.15-6.51,0-.82-.03-1.66.19-2.68.61-2.77,2.41-4.14,3.05-9.36.43-3.52-2.23-2.9-2.16-5.75.1-3.65,2.45-2.58,2.97-4.49,0,0-.79-1.81-.12-5.77.27-1.59-1.65-1.13-2.57-3.04-2.43-5.03-.27-9.17-.27-9.17.11-1.18,1.99-2.59,2.16-6.11.21-4.43-1.57-8.2-1.56-11.32,0-2.6-1.99-1.26-2.04-4.5-.02-1.11,1.62-2.05,1.94-5.45-.07-3.42-2.58-1.38-2.66-4.79-.1-4.62,2.43-5.75,2.43-5.75"/>
    <path class="cls-1" d="M39.74,0H2.04l.31,31.08h37.55s-2.08-7.98.69-10.57c1.65-1.55,1.96-5.87,1.93-9.1-.02-2.07-.4-4.02-1.04-5.3-.68-1.36-2.3-4.04-1.75-6.11Z"/>
    <path class="cls-2" d="M37.86,114.76H.33S1.76,66.95,1.79,31.34c.01-16.2.03-28.18.03-31.34h37.7s-1.04,7.98.35,10.57c.83,1.55.98,5.87.97,9.1,0,2.07-.2,4.02-.52,5.3-.43,1.71-1.03,2.1-1.57,3.2-.31.64-1.15,4.77-1.15,6.51,0,.82-.03,1.66.19,2.68.61,2.77,2.41,4.14,3.05,9.36.43,3.52-2.23,2.9-2.16,5.75.1,3.65,2.45,2.58,2.97,4.49,0,0-.79,1.81-.12,5.77.27,1.59-1.65,1.13-2.57,3.04-2.43,5.03-.27,9.17-.27,9.17.11,1.18,1.99,2.59,2.16,6.11.21,4.43-1.57,8.2-1.56,11.32,0,2.6-1.99,1.26-2.04,4.5-.02,1.11,1.62,2.05,1.94,5.45-.07,3.42-2.58,1.38-2.66,4.79-.1,4.62,2.43,5.75,2.43,5.75"/>
    <path class="cls-2" d="M37.69,145.84H0l.31-31.08h37.55s-2.08,7.98.69,10.57c1.65,1.55,1.96,5.87,1.93,9.1-.02,2.07-.4,4.02-1.04,5.3-.68,1.36-2.3,4.04-1.75,6.11Z"/>
  </g>
</svg>